<svg xmlns="http://www.w3.org/2000/svg" xmlns:xlink="http://www.w3.org/1999/xlink" width="318" zoomAndPan="magnify" viewBox="0 0 238.5 187.499995" height="250" preserveAspectRatio="xMidYMid meet" version="1.0"><defs><clipPath id="67bec4959e"><path d="M 0.0664062 0 L 237.183594 0 L 237.183594 76 L 0.0664062 76 Z M 0.0664062 0 " clip-rule="nonzero"/></clipPath><clipPath id="7dd03828bc"><path d="M 0.0664062 82 L 237 82 L 237 186.253906 L 0.0664062 186.253906 Z M 0.0664062 82 " clip-rule="nonzero"/></clipPath></defs><g clip-path="url(#67bec4959e)"><path fill="#000000" d="M 96.140625 0.316406 C 94.300781 0.746094 92.675781 1.695312 91.480469 3.109375 C 90.742188 3.96875 87.554688 10.136719 82.308594 20.847656 L 74.273438 37.265625 L 65.316406 37.359375 L 56.359375 37.417969 L 56.359375 34.410156 C 56.359375 31.003906 55.933594 29.929688 53.9375 28.609375 C 52.894531 27.90625 52.894531 27.90625 40.566406 27.90625 C 28.265625 27.90625 28.234375 27.90625 27.222656 28.609375 C 25.476562 29.777344 24.953125 31.035156 24.832031 34.410156 L 24.707031 37.417969 L 19.585938 37.417969 C 15.96875 37.417969 13.941406 37.574219 12.65625 37.878906 C 6.613281 39.476562 2.289062 43.800781 0.695312 49.847656 C 0.324219 51.320312 0.234375 53.808594 0.234375 63.414062 L 0.234375 75.167969 L 80.898438 75.167969 L 84.515625 71.546875 C 96.140625 59.882812 110.066406 53.992188 125.921875 53.992188 C 135.246094 54.023438 143.40625 55.957031 151.71875 60.128906 C 158.003906 63.257812 164.597656 68.199219 168.800781 72.863281 L 170.855469 75.167969 L 237.042969 75.167969 L 236.953125 63.105469 C 236.828125 52.546875 236.765625 50.859375 236.277344 49.386719 C 234.28125 43.3125 229.714844 38.890625 224.191406 37.757812 C 223.089844 37.542969 215.238281 37.417969 199.960938 37.417969 L 177.359375 37.417969 L 169.414062 21.214844 C 165.027344 12.316406 161.070312 4.488281 160.613281 3.785156 C 160.152344 3.109375 159.199219 2.1875 158.527344 1.726562 C 155.859375 -0.0546875 156.316406 -0.0234375 125.523438 0.0078125 C 110.003906 0.0390625 96.785156 0.160156 96.140625 0.316406 Z M 144.601562 14.308594 C 146.105469 15.046875 146.6875 16.671875 147.484375 22.257812 L 148.191406 27.199219 L 147.578125 28.242188 C 146.503906 30.085938 146.65625 30.085938 125.1875 29.992188 C 106.046875 29.898438 105.773438 29.898438 104.914062 29.253906 C 103.226562 27.996094 103.164062 27.535156 104.023438 21.738281 C 104.972656 15.351562 105.464844 14.371094 108.042969 13.789062 C 108.5625 13.664062 116.753906 13.632812 126.289062 13.695312 C 141.382812 13.789062 143.742188 13.878906 144.601562 14.308594 Z M 216.25 51.660156 C 218.273438 52.519531 218.457031 52.976562 218.550781 57.828125 C 218.640625 61.386719 218.550781 62.398438 218.179688 63.167969 C 217.230469 65.007812 216.921875 65.039062 205.453125 65.039062 L 195.054688 65.039062 L 194.105469 64.242188 C 192.878906 63.230469 192.539062 61.878906 192.539062 57.886719 C 192.539062 53.5 193.214844 52.027344 195.453125 51.445312 C 195.792969 51.382812 200.390625 51.289062 205.667969 51.257812 C 213.121094 51.230469 215.480469 51.320312 216.25 51.660156 Z M 216.25 51.660156 " fill-opacity="1" fill-rule="nonzero"/></g><path fill="#000000" d="M 118.59375 61.511719 C 106.417969 63.503906 96.480469 68.84375 88.167969 77.929688 C 74.765625 92.507812 71.113281 113.925781 78.902344 132.09375 C 84.671875 145.507812 96.324219 156.246094 110.035156 160.757812 C 116.046875 162.753906 118.347656 163.089844 126.136719 163.089844 C 132.792969 163.0625 133.40625 163.03125 136.871094 162.203125 C 146.871094 159.839844 154.476562 155.632812 161.746094 148.359375 C 167.296875 142.835938 170.917969 137.3125 173.675781 130.101562 C 178 118.960938 177.972656 105.273438 173.648438 94.070312 C 167.265625 77.5 153.402344 65.746094 135.796875 61.941406 C 131.964844 61.109375 122.488281 60.867188 118.59375 61.511719 Z M 133.3125 77.898438 C 152.851562 82.195312 164.78125 101.988281 159.570312 121.445312 C 158.035156 127.214844 154.875 132.585938 150.398438 137.035156 C 145.796875 141.609375 140.765625 144.585938 134.695312 146.273438 C 131.871094 147.070312 131.257812 147.132812 125.984375 147.101562 C 120.769531 147.101562 120.066406 147.011719 117.242188 146.242188 C 104.972656 142.898438 95.464844 133.355469 92.0625 121.046875 C 91.265625 118.191406 91.203125 117.578125 91.203125 112.300781 C 91.203125 107.144531 91.296875 106.347656 92.03125 103.617188 C 92.953125 100.179688 95.222656 95.207031 97.183594 92.320312 C 100.375 87.625 105.957031 82.898438 111.382812 80.351562 C 114.207031 79.035156 118.53125 77.804688 121.84375 77.34375 C 124.757812 76.945312 130.125 77.191406 133.3125 77.898438 Z M 133.3125 77.898438 " fill-opacity="1" fill-rule="nonzero"/><g clip-path="url(#7dd03828bc)"><path fill="#000000" d="M 0.292969 127.707031 L 0.386719 173.21875 L 1.03125 174.90625 C 2.105469 177.730469 2.871094 179.019531 4.527344 180.828125 C 6.550781 183.070312 8.820312 184.511719 11.671875 185.496094 L 14.003906 186.261719 L 118.992188 186.199219 L 223.976562 186.109375 L 225.816406 185.433594 C 229.742188 183.929688 233.269531 180.800781 235.050781 177.207031 C 237.105469 173.003906 237.011719 175.367188 236.953125 126.511719 L 236.859375 82.378906 L 206.433594 82.285156 C 189.6875 82.257812 175.976562 82.285156 175.976562 82.316406 C 175.976562 82.378906 176.804688 84.097656 177.816406 86.152344 C 183.984375 98.550781 185.546875 112.546875 182.296875 125.957031 C 180.273438 134.242188 176.253906 142.253906 170.761719 148.972656 C 168.648438 151.550781 163.984375 156.1875 161.65625 157.996094 C 152.484375 165.179688 141.167969 169.566406 129.972656 170.304688 C 102.734375 172.082031 77.554688 154.34375 70.039062 128.042969 C 68.507812 122.703125 67.953125 118.46875 67.953125 112.148438 C 67.953125 101.222656 69.703125 94.625 75.929688 82.441406 C 75.992188 82.316406 58.96875 82.226562 38.144531 82.226562 L 0.234375 82.226562 Z M 0.292969 127.707031 " fill-opacity="1" fill-rule="nonzero"/></g></svg>